<?xml version="1.0" encoding="UTF-8" standalone="no"?>
<!-- Created with Inkscape (http://www.inkscape.org/) -->

<svg
   xmlns:dc="http://purl.org/dc/elements/1.1/"
   xmlns:cc="http://creativecommons.org/ns#"
   xmlns:rdf="http://www.w3.org/1999/02/22-rdf-syntax-ns#"
   xmlns:svg="http://www.w3.org/2000/svg"
   xmlns="http://www.w3.org/2000/svg"
   xmlns:sodipodi="http://sodipodi.sourceforge.net/DTD/sodipodi-0.dtd"
   xmlns:inkscape="http://www.inkscape.org/namespaces/inkscape"
   width="200mm"
   height="247.92007mm"
   viewBox="0 0 199.99999 247.92007"
   version="1.1"
   id="svg727"
   inkscape:version="0.92.4 (5da689c313, 2019-01-14)"
   sodipodi:docname="Bureau veritas.svg">
  <defs
     id="defs721">
    <clipPath
       clipPathUnits="userSpaceOnUse"
       id="clipPath436">
      <path
         d="M 222.806,35.863 H 372.475 V 171.769 H 222.806 Z"
         id="path434"
         inkscape:connector-curvature="0" />
    </clipPath>
    <clipPath
       clipPathUnits="userSpaceOnUse"
       id="clipPath518">
      <path
         d="M 222.806,35.863 H 372.475 V 171.769 H 222.806 Z"
         id="path516"
         inkscape:connector-curvature="0" />
    </clipPath>
  </defs>
  <sodipodi:namedview
     id="base"
     pagecolor="#ffffff"
     bordercolor="#666666"
     borderopacity="1.0"
     inkscape:pageopacity="0.0"
     inkscape:pageshadow="2"
     inkscape:zoom="0.49497475"
     inkscape:cx="747.81445"
     inkscape:cy="500.33896"
     inkscape:document-units="mm"
     inkscape:current-layer="g615"
     showgrid="false"
     inkscape:pagecheckerboard="true"
     fit-margin-top="0"
     fit-margin-left="0"
     fit-margin-right="0"
     fit-margin-bottom="0"
     inkscape:window-width="1920"
     inkscape:window-height="1001"
     inkscape:window-x="-9"
     inkscape:window-y="-9"
     inkscape:window-maximized="1" />
  <metadata
     id="metadata724">
    <rdf:RDF>
      <cc:Work
         rdf:about="">
        <dc:format>image/svg+xml</dc:format>
        <dc:type
           rdf:resource="http://purl.org/dc/dcmitype/StillImage" />
        <dc:title></dc:title>
      </cc:Work>
    </rdf:RDF>
  </metadata>
  <g
     inkscape:label="Calque 1"
     inkscape:groupmode="layer"
     id="layer1"
     transform="translate(0.63685495,-10.721018)">
    <g
       transform="matrix(2.0044231,0,0,-2.0044231,-514.80547,396.27281)"
       id="g615">
      <g
         id="g973"
         transform="matrix(1.1996169,0,0,1.1996169,-51.205121,-13.706492)">
        <g
           id="g334"
           transform="translate(286.601,170.06)">
          <path
             d="M 0,0 C 0.137,0.047 -0.14,-0.043 0,0"
             style="fill:#231f20;fill-opacity:1;fill-rule:nonzero;stroke:none"
             id="path336"
             inkscape:connector-curvature="0" />
        </g>
        <g
           id="g338"
           transform="translate(286.601,170.06)">
          <path
             d="M 0,0 C 0.026,0.008 -0.024,-0.006 0,0"
             style="fill:#231f20;fill-opacity:1;fill-rule:nonzero;stroke:none"
             id="path340"
             inkscape:connector-curvature="0" />
        </g>
        <g
           id="g342"
           transform="translate(325.118,135.723)">
          <path
             d="m 0,0 c 0.13,7.972 -2.299,17.647 -4.64,22.795 -2.596,5.89 -6.556,9.467 -12.376,11.058 -3.131,0.804 -6.421,1.213 -9.801,1.213 -3.377,0 -6.686,-0.409 -9.816,-1.213 -5.816,-1.591 -9.781,-5.168 -12.369,-11.058 C -51.348,17.647 -53.775,7.972 -53.647,0 c -0.128,-7.972 2.299,-17.649 4.645,-22.799 2.588,-5.886 6.553,-9.465 12.369,-11.053 3.13,-0.807 6.439,-1.217 9.816,-1.217 3.38,0 6.67,0.41 9.801,1.217 5.82,1.588 9.78,5.167 12.376,11.053 C -2.299,-17.649 0.13,-7.972 0,0 m -26.767,-36.047 h -0.088 c -4.057,0 -7.968,0.606 -11.662,1.719 -3.975,1.382 -7.657,4.144 -9.935,7.598 -3.764,5.5 -7.176,16.129 -7.323,26.713 v 0.032 c 0.147,10.584 3.559,21.214 7.323,26.717 2.278,3.451 5.96,6.223 9.935,7.604 3.694,1.119 7.69,1.71 11.75,1.71 4.056,0 8.051,-0.591 11.751,-1.71 3.972,-1.381 7.66,-4.153 9.94,-7.604 C -1.318,21.229 2.095,10.599 2.237,0.015 V -0.017 C 2.095,-10.601 -1.318,-21.23 -5.076,-26.73 c -2.28,-3.454 -6.053,-6.227 -10.025,-7.606 -3.697,-1.117 -7.518,-1.711 -11.583,-1.711"
             style="fill:#64614f;fill-opacity:1;fill-rule:nonzero;stroke:none"
             id="path344"
             inkscape:connector-curvature="0" />
        </g>
        <g
           id="g346"
           transform="translate(302.338,152.134)">
          <path
             d="M 0,0 C -0.389,0.653 -0.071,0.07 -0.474,0.829"
             style="fill:#ffffff;fill-opacity:1;fill-rule:nonzero;stroke:none"
             id="path348"
             inkscape:connector-curvature="0" />
        </g>
        <g
           id="g350"
           transform="translate(299.28,102.535)">
          <path
             d="M 0,0 C -0.026,1.459 1.401,2.195 2.299,3.163 2.544,3.395 2.633,3.859 2.461,4.241 2.352,4.482 2.197,4.6 1.996,4.65 1.683,4.721 1.418,4.674 1.217,4.501 0.939,4.24 0.864,3.902 0.878,3.538 L -0.126,3.48 C -0.211,4.033 -0.074,4.569 0.264,4.989 0.73,5.487 1.43,5.624 2.112,5.579 2.655,5.489 3.29,5.162 3.515,4.593 3.804,3.976 3.707,3.181 3.25,2.66 2.66,2.033 1.892,1.69 1.401,0.982 l 2.522,0.15 C 3.944,0.824 3.965,0.517 3.978,0.231"
             style="fill:#64614f;fill-opacity:1;fill-rule:nonzero;stroke:none"
             id="path352"
             inkscape:connector-curvature="0" />
        </g>
        <g
           id="g354"
           transform="translate(290.327,108.841)">
          <path
             d="m 0,0 -0.017,-0.047 -1.642,-5.04 -1.05,0.345 1.128,3.446 0.017,0.059 c -0.42,0.149 -0.925,0.291 -1.33,0.435 l 0.214,0.655 c 0.53,-0.141 1.075,-0.232 1.54,0.153 0.168,0.133 0.197,0.168 0.289,0.267"
             style="fill:#64614f;fill-opacity:1;fill-rule:nonzero;stroke:none"
             id="path356"
             inkscape:connector-curvature="0" />
        </g>
        <g
           id="g358"
           transform="translate(309.026,105.057)">
          <path
             d="m 0,0 c -0.133,-0.156 -0.372,-0.276 -0.63,-0.337 -0.261,-0.065 -0.526,-0.073 -0.716,0.006 -0.261,0.098 -0.441,0.298 -0.507,0.529 -0.1,0.347 0,0.711 0.291,0.918 0.133,0.087 0.315,0.172 0.512,0.228 0.204,0.04 0.41,0.053 0.557,0.031 C -0.13,1.332 0.126,1.056 0.197,0.707 0.247,0.47 0.185,0.204 0,0 m -2.204,2.43 c -0.128,0.217 -0.128,0.587 0.1,0.805 0.128,0.137 0.317,0.235 0.521,0.284 0.199,0.054 0.417,0.055 0.597,-0.009 C -0.69,3.42 -0.521,3.094 -0.526,2.841 -0.531,2.647 -0.616,2.493 -0.742,2.375 -0.87,2.259 -1.052,2.175 -1.242,2.132 -1.429,2.081 -1.623,2.076 -1.791,2.114 -1.96,2.163 -2.109,2.259 -2.204,2.43 M 1.266,0.991 C 1.133,1.487 0.856,1.886 0.303,2.045 l -0.32,0.069 C 0.313,2.346 0.616,2.816 0.507,3.27 0.429,3.789 0.055,4.119 -0.417,4.297 -0.829,4.426 -1.313,4.403 -1.77,4.28 -2.235,4.176 -2.666,3.969 -2.979,3.664 -3.308,3.287 -3.489,2.822 -3.311,2.327 -3.199,1.873 -2.714,1.601 -2.318,1.546 L -2.566,1.337 c -0.42,-0.403 -0.472,-0.878 -0.361,-1.381 0.121,-0.557 0.571,-0.995 1.117,-1.156 0.407,-0.103 0.902,-0.095 1.386,0.019 0.483,0.12 0.924,0.341 1.237,0.63 0.408,0.399 0.602,0.988 0.453,1.542"
             style="fill:#64614f;fill-opacity:1;fill-rule:nonzero;stroke:none"
             id="path360"
             inkscape:connector-curvature="0" />
        </g>
        <g
           id="g362"
           transform="translate(295.168,103.586)">
          <path
             d="m 0,0 c -0.173,-0.108 -0.438,-0.156 -0.704,-0.136 -0.265,0.013 -0.519,0.095 -0.68,0.216 -0.22,0.173 -0.327,0.419 -0.322,0.666 0.007,0.354 0.211,0.672 0.552,0.782 0.149,0.044 0.348,0.074 0.555,0.063 0.203,-0.016 0.407,-0.064 0.542,-0.13 C 0.273,1.31 0.436,0.972 0.4,0.612 0.379,0.379 0.235,0.143 0,0 m -1.379,2.973 c -0.055,0.246 0.057,0.601 0.336,0.741 0.157,0.093 0.375,0.131 0.579,0.114 C -0.256,3.816 -0.047,3.755 0.102,3.643 0.363,3.473 0.427,3.106 0.344,2.868 0.284,2.678 0.152,2.564 -0.002,2.483 -0.161,2.415 -0.356,2.39 -0.55,2.404 -0.744,2.413 -0.934,2.462 -1.081,2.551 -1.223,2.646 -1.344,2.782 -1.379,2.973 M 1.503,0.569 C 1.524,1.079 1.379,1.545 0.901,1.859 L 0.616,2.021 C 0.995,2.142 1.425,2.499 1.455,2.968 1.538,3.489 1.275,3.916 0.882,4.229 0.524,4.473 0.062,4.591 -0.415,4.615 -0.889,4.651 -1.365,4.584 -1.749,4.386 -2.18,4.124 -2.491,3.731 -2.472,3.207 -2.496,2.741 -2.114,2.333 -1.749,2.166 L -2.052,2.039 C -2.576,1.784 -2.768,1.342 -2.806,0.83 c -0.05,-0.573 0.249,-1.119 0.723,-1.433 0.353,-0.23 0.832,-0.367 1.329,-0.402 0.491,-0.028 0.982,0.057 1.368,0.239 0.507,0.256 0.865,0.762 0.889,1.335"
             style="fill:#64614f;fill-opacity:1;fill-rule:nonzero;stroke:none"
             id="path364"
             inkscape:connector-curvature="0" />
        </g>
        <g
           id="g366"
           transform="translate(320.397,155.278)">
          <path
             d="m 0,0 -4.908,-2.114 -0.436,1.017 4.903,2.119"
             style="fill:#64614f;fill-opacity:1;fill-rule:nonzero;stroke:none"
             id="path368"
             inkscape:connector-curvature="0" />
        </g>
        <g
           id="g370"
           transform="translate(301.916,163.755)">
          <path
             d="M 0,0 -1.261,5.497 -0.097,5.381 C 0.135,4.02 0.375,2.478 0.65,1.331 1.152,2.401 1.695,3.862 2.192,5.144 L 3.339,5.03 1.017,-0.103"
             style="fill:#64614f;fill-opacity:1;fill-rule:nonzero;stroke:none"
             id="path372"
             inkscape:connector-curvature="0" />
        </g>
        <g
           id="g374"
           transform="translate(281.053,160.612)">
          <path
             d="m 0,0 -1.192,-2.133 -1.007,0.559 1.365,2.448 -0.766,0.434 -1.91,-3.427 4.66,-2.605 1.912,3.43 -0.773,0.431 -1.37,-2.453 -1.305,0.733 1.197,2.133"
             style="fill:#64614f;fill-opacity:1;fill-rule:nonzero;stroke:none"
             id="path376"
             inkscape:connector-curvature="0" />
        </g>
        <g
           id="g378"
           transform="translate(277.519,135.505)">
          <path
             d="M 0,0 -1.49,-0.002 H -1.5 c 0.026,1.185 -0.159,1.885 0.547,2.022 0.247,0.066 0.55,0.04 0.733,-0.145 C 0.083,1.583 -0.009,1.098 0,0 m -2.303,-0.002 h -1.313 c 0.04,1.22 -0.159,1.877 0.59,1.956 0.443,0.033 0.562,-0.064 0.663,-0.335 0.086,-0.272 0.06,-0.561 0.06,-1.621 M 0.709,2.416 C 0.455,2.992 -0.163,3.219 -0.801,3.188 -1.339,3.12 -1.746,2.757 -1.976,2.202 -2.057,2.527 -2.363,2.932 -2.875,2.996 -3.41,3.062 -3.925,2.916 -4.18,2.463 -4.533,2.013 -4.38,0.027 -4.415,-1.118 l 5.302,0.005 0.002,0.386 C 0.858,1.382 0.981,1.638 0.709,2.416"
             style="fill:#64614f;fill-opacity:1;fill-rule:nonzero;stroke:none"
             id="path380"
             inkscape:connector-curvature="0" />
        </g>
        <g
           id="g382"
           transform="translate(320.44,152.309)">
          <path
             d="m 0,0 0.849,0.221 1.075,-4.175 -0.853,-0.219 -0.393,1.542 -4.29,-1.106 -0.272,1.082 4.282,1.105"
             style="fill:#64614f;fill-opacity:1;fill-rule:nonzero;stroke:none"
             id="path384"
             inkscape:connector-curvature="0" />
        </g>
        <g
           id="g386"
           transform="translate(293.495,163.452)">
          <path
             d="m 0,0 c 0.592,0.09 1.151,0.337 1.528,0.778 0.323,0.365 0.37,0.716 0.32,1.108 L 1.239,5.706 0.149,5.531 0.763,1.714 C 0.798,1.426 0.599,1.129 0.343,0.982 0.201,0.89 0.035,0.84 -0.142,0.816 -0.313,0.784 -0.491,0.783 -0.65,0.821 -0.939,0.879 -1.216,1.072 -1.278,1.385 L -1.896,5.2 -2.979,5.023 -2.365,1.209 c 0.075,-0.389 0.229,-0.707 0.654,-0.954 0.49,-0.298 1.099,-0.358 1.696,-0.256"
             style="fill:#64614f;fill-opacity:1;fill-rule:nonzero;stroke:none"
             id="path388"
             inkscape:connector-curvature="0" />
        </g>
        <g
           id="g390"
           transform="translate(319.821,143.06)">
          <path
             d="M 0,0 -0.185,1.322 2.119,0.97 H 2.126 L 2.121,0.968 H 2.13 2.119 Z m 3.083,1.683 -5.545,1.114 0.151,-1.083 1.209,-0.22 0.263,-1.91 -1.095,-0.543 0.145,-1.085 5.033,2.591"
             style="fill:#64614f;fill-opacity:1;fill-rule:nonzero;stroke:none"
             id="path392"
             inkscape:connector-curvature="0" />
        </g>
        <g
           id="g394"
           transform="translate(322.103,135.569)">
          <path
             d="m 0,0 0.1,0.017 0.12,0.03 0.088,0.036 c 0.353,0.19 0.436,0.659 0.415,1.038 -0.01,0.386 -0.13,0.777 -0.49,0.922 -0.19,0.05 -0.425,0.066 -0.553,-0.128 -0.604,-0.893 -0.185,-2.782 -1.737,-3.112 -0.678,-0.116 -1.273,0.183 -1.623,0.725 -0.482,0.854 -0.519,2.2 0.03,3.036 0.332,0.433 0.78,0.702 1.321,0.706 L -2.261,2.245 C -2.595,2.202 -2.922,2.032 -3.074,1.702 -3.296,1.168 -3.247,0.318 -2.851,0.003 c 0.147,-0.162 0.474,-0.14 0.654,-0.046 0.619,0.443 0.493,1.548 0.804,2.288 0.102,0.315 0.396,0.632 0.685,0.792 C -0.161,3.272 0.54,3.187 0.981,2.754 1.692,2.082 1.723,0.766 1.396,-0.031 1.211,-0.585 0.607,-0.986 -0.012,-1.021 l -0.066,1.019"
             style="fill:#64614f;fill-opacity:1;fill-rule:nonzero;stroke:none"
             id="path396"
             inkscape:connector-curvature="0" />
        </g>
        <g
           id="g398"
           transform="translate(279.129,143.634)">
          <path
             d="M 0,0 C 0.099,0.597 0.04,1.209 -0.263,1.694 -0.507,2.119 -0.827,2.271 -1.221,2.351 L -5.036,2.944 -5.209,1.863 -1.389,1.256 C -1.102,1.213 -0.884,0.92 -0.825,0.636 -0.784,0.474 -0.784,0.299 -0.815,0.122 -0.839,-0.05 -0.891,-0.22 -0.984,-0.363 -1.13,-0.612 -1.396,-0.818 -1.713,-0.778 L -5.529,-0.187 -5.7,-1.271 -1.879,-1.87 c 0.393,-0.047 0.742,0.002 1.106,0.327 0.439,0.375 0.68,0.939 0.773,1.531"
             style="fill:#64614f;fill-opacity:1;fill-rule:nonzero;stroke:none"
             id="path400"
             inkscape:connector-curvature="0" />
        </g>
        <g
           id="g402"
           transform="translate(285.7,162.997)">
          <path
             d="M 0,0 -0.59,2.251 -0.595,2.26 -0.59,2.256 -0.593,2.266 -0.588,2.253 1.138,0.695 Z M -0.649,3.455 -1.626,2.861 -0.455,-2.67 0.483,-2.106 0.206,-0.91 1.851,0.093 2.79,-0.703 3.721,-0.134"
             style="fill:#64614f;fill-opacity:1;fill-rule:nonzero;stroke:none"
             id="path404"
             inkscape:connector-curvature="0" />
        </g>
        <g
           id="g406"
           transform="translate(310.965,164.716)">
          <path
             d="m 0,0 -2.246,0.943 0.442,1.063 2.581,-1.081 0.347,0.815 -3.619,1.512 -2.065,-4.925 3.622,-1.512 0.343,0.817 -2.592,1.084 0.575,1.377 2.264,-0.951"
             style="fill:#64614f;fill-opacity:1;fill-rule:nonzero;stroke:none"
             id="path408"
             inkscape:connector-curvature="0" />
        </g>
        <g
           id="g410"
           transform="translate(277.396,150.976)">
          <path
             d="m 0,0 -1.342,0.394 c 0.297,0.91 0.427,1.83 1.067,1.778 C -0.014,2.127 0.163,2.058 0.313,1.871 0.561,1.564 0.241,0.879 0,0 M 1.062,1.911 C 1.059,2.276 1.04,2.579 0.737,2.872 0.445,3.176 -0.021,3.314 -0.479,3.284 -1.668,3.102 -1.825,1.739 -2.486,-0.424 l 5.114,-1.525 0.323,1.07 -2.024,0.599 -0.081,0.023 C 0.981,0.238 1.183,0.86 1.28,0.995 1.645,1.839 3,1.012 3.536,1.089 L 3.849,2.151 C 2.938,2.101 1.713,2.917 1.062,1.911"
             style="fill:#64614f;fill-opacity:1;fill-rule:nonzero;stroke:none"
             id="path412"
             inkscape:connector-curvature="0" />
        </g>
        <g
           id="g414"
           transform="translate(316.572,160.195)">
          <path
             d="m 0,0 c -0.187,-0.183 -0.344,-0.283 -0.586,-0.293 -0.402,-0.02 -0.762,0.641 -1.329,1.355 L -0.811,1.91 C -0.242,1.138 0.422,0.489 0,0 m -0.801,3.318 -4.235,-3.236 0.673,-0.885 1.673,1.278 0.074,0.051 c 0.312,-0.4 0.703,-0.927 0.751,-1.085 0.471,-0.795 -1.005,-1.399 -1.247,-1.882 l 0.669,-0.877 c 0.495,0.773 1.876,1.277 1.443,2.395 0.298,-0.218 0.557,-0.38 0.974,-0.303 0.419,0.058 0.805,0.352 1.05,0.744 0.547,1.07 -0.46,1.999 -1.825,3.8"
             style="fill:#64614f;fill-opacity:1;fill-rule:nonzero;stroke:none"
             id="path416"
             inkscape:connector-curvature="0" />
        </g>
        <g
           id="g418"
           transform="translate(312.045,134.456)">
          <path
             d="M 0,0 -9.195,0.013 V 2.687 L 0,2.692 Z m -0.924,-13.167 c -0.427,-0.339 -0.78,-0.627 -1.294,-1.027 0.038,1.022 0.182,2.062 -0.311,2.668 -1.206,1.196 -2.298,2.285 -3.386,3.352 -0.403,0.436 -0.728,1.061 -0.462,1.638 0.125,0.277 0.298,0.591 0.486,0.841 0,-0.562 0.246,-0.882 0.563,-1.199 1.479,-1.451 4.037,-3.475 4.243,-4.332 0.22,-0.578 0.151,-1.268 0.161,-1.941 m -2.012,-0.363 c -0.285,-0.313 -0.384,-0.427 -0.716,-0.753 l -0.673,0.808 v 2.249 c -0.946,-0.464 -0.718,-1.806 -0.718,-2.971 -0.559,0.456 -0.842,0.715 -1.38,1.222 -0.303,1.343 0.498,2.106 1.107,3.052 l 2.38,-2.28 z M -2.37,-1.5 c 0.564,-0.462 0.849,-0.718 1.384,-1.227 0.304,-1.344 -0.502,-2.106 -1.104,-3.049 l -2.384,2.278 v 1.327 c 0.284,0.311 0.384,0.425 0.715,0.751 l 0.673,-0.809 v -2.244 c 0.948,0.461 0.716,1.807 0.716,2.973 m -4.119,-1.034 c 0.432,0.335 0.78,0.626 1.294,1.029 -0.038,-1.023 -0.18,-2.062 0.313,-2.669 1.209,-1.201 2.301,-2.287 3.387,-3.353 0.405,-0.436 0.725,-1.06 0.462,-1.637 -0.128,-0.28 -0.301,-0.591 -0.486,-0.843 0,0.561 -0.242,0.885 -0.562,1.203 -1.478,1.45 -4.036,3.471 -4.242,4.331 -0.223,0.574 -0.152,1.271 -0.166,1.939 M -6.915,-20.45 c -0.259,-0.441 -0.669,-0.891 -1.136,-1.114 -0.805,-0.453 -2.021,-0.33 -2.746,0.199 -0.662,0.474 -1.076,1.187 -1.086,1.917 2.038,0.003 3.328,0.003 5.257,0.003 -0.021,-0.436 -0.093,-0.583 -0.289,-1.005 m -5.669,-1.114 h -1.812 v 3.249 l -2.82,-0.002 v 1.308 h 2.832 l 0.889,1.05 c 0.431,-0.504 0.467,-0.541 0.916,-1.05 h 2.827 v -1.308 l -2.832,0.002 z m -3.604,0.199 c -0.729,-0.529 -1.94,-0.652 -2.749,-0.199 -0.464,0.223 -0.881,0.673 -1.135,1.114 -0.192,0.422 -0.27,0.569 -0.287,1.005 1.923,0 3.221,0 5.259,-0.003 -0.012,-0.73 -0.424,-1.443 -1.088,-1.917 m 5.735,12.038 0.006,7.889 c 1.128,0.016 1.491,-0.015 2.662,0.007 v -7.896 z m -0.856,-0.774 c 0.9,-0.04 1.81,-0.789 2.161,-1.628 0.358,-0.858 0.218,-1.979 -0.336,-2.693 -0.692,-0.84 -1.652,-1.286 -2.771,-1.085 -0.705,0.156 -1.399,0.586 -1.804,1.246 0.576,0.193 1.396,0.525 1.558,1.084 -0.043,0.872 0.557,1.571 1.002,2.266 0.228,0.3 0.256,0.482 0.19,0.81 m -10.204,-6.135 c -0.438,0.289 -0.54,0.573 -0.694,0.974 -0.372,1.696 1.678,2.306 2.164,3.716 0.381,2.358 0.495,4.841 2.135,6.678 0.161,3.463 1.282,6.527 3.744,9.044 -0.116,0.782 -0.436,1.458 -0.67,2.186 -0.323,0.013 -0.541,0.075 -0.832,0.334 -0.213,0.302 -0.301,0.528 -0.356,0.893 -0.858,-1.064 -1.919,-2.252 -3.087,-2.97 -0.214,-0.121 -0.486,0.133 -0.877,0.495 -1.434,1.135 -1.676,3.695 -3.861,3.584 -0.993,0.333 -0.946,1.502 -1.109,2.377 0.367,0.269 0.967,0.256 1.407,0.084 1.366,-0.73 2.276,-2.267 3.563,-3.296 0.343,-0.274 0.654,-0.635 0.971,-0.767 0.846,0.728 1.522,1.353 2.098,2.476 0.395,0.641 1.054,0.916 1.784,0.925 l 0.519,0.612 -0.275,1.529 c -0.533,0.679 -0.974,1.394 -1.332,2.158 0.187,0.876 0.301,1.896 1.188,2.38 0.58,0.36 1.052,-0.46 1.528,0.06 0.346,0.071 0.647,-0.024 0.89,-0.221 0.36,-0.627 0.784,-1.249 0.808,-1.977 -0.22,-0.707 -0.554,-1.362 -0.889,-2.024 -0.076,-0.144 -0.28,-0.191 -0.418,-0.299 0.084,-0.298 0.154,-0.63 0.361,-0.867 0.263,-0.055 0.515,-0.101 0.83,-0.044 0.256,0.773 1.088,1.12 1.782,1.329 l 1.524,0.993 c -0.244,1.157 0.498,2.173 0.086,3.324 -0.873,0.412 -1.122,1.393 -1.309,2.167 0.14,0.477 0.375,0.99 0.72,1.397 l 0.05,-0.061 c 0.835,-0.967 1.598,-1.964 1.863,-3.166 0.149,-1.536 0.299,-3.109 0.199,-4.712 -0.825,-0.821 -1.818,-1.308 -2.751,-1.916 l -0.694,-1.331 c -0.083,-1.374 -0.487,-2.609 -0.697,-3.939 0.592,-1.607 1.294,-3.747 0.777,-5.233 -0.398,-0.886 -1.23,-1.369 -1.848,-1.862 l -1.563,-1.249 c 1.569,-1.726 1.19,-3.683 1.257,-6.186 -0.017,-0.604 1.066,-1.107 0.49,-1.796 -0.483,-0.773 -1.235,-1.399 -1.11,-2.413 -0.481,-0.807 -1.626,-0.979 -2.171,-0.972 -0.114,-0.007 -0.206,0.081 -0.206,0.197 0.114,0.415 0.436,0.74 0.607,1.133 0.559,0.854 0.303,2.034 0.995,2.828 -0.568,1.86 -1.431,3.583 -1.668,5.566 l -0.014,0.128 c -0.468,-0.912 -0.209,-1.806 0.035,-2.526 -1.538,-1.939 -3.206,-3.804 -3.206,-6.354 -0.659,-1.168 -1.593,-2.232 -2.081,-3.468 -0.161,-0.207 -0.47,-0.027 -0.657,0.082 m -1.137,5.815 c -0.536,-0.374 -1.031,-0.406 -1.557,-0.405 -0.171,0.002 -0.477,0.026 -0.652,0.081 -0.396,0.099 -0.957,0.313 -1.294,0.848 l -0.066,0.126 -0.06,0.161 -0.073,0.17 -0.029,0.27 0.003,4.996 c -0.045,0.628 -0.28,0.641 -0.792,1.022 l 0.183,0.062 2.024,0.662 c 0.286,-0.315 0.353,-0.717 0.379,-1.133 v -3.904 c -0.005,-0.254 0.216,-0.398 0.507,-0.412 0.346,0 0.488,0.13 0.517,0.404 0.026,1.75 -0.029,2.24 0,3.83 0.045,0.534 0.521,1.068 0.971,1.19 0.562,0.268 1.24,0.164 1.74,-0.085 0.903,-0.426 0.858,-2.19 0.848,-3.621 -0.353,0.232 -0.41,0.26 -0.763,0.357 -0.308,0.067 -0.647,0.008 -0.886,-0.175 -0.292,-0.267 -0.322,-0.526 -0.327,-0.993 -0.024,-1.657 0.158,-2.796 -0.673,-3.451 m -0.979,18.472 c 0.384,0.104 0.756,-0.135 1.05,-0.357 -0.045,-1.55 -0.045,-1.532 -0.079,-3.16 h -0.853 l -0.004,0.26 c -0.034,1.233 -0.086,2.041 -0.114,3.257 m -3.557,-5.364 9.195,0.005 V 0.021 l -9.195,-0.008 z m 5.816,11.397 h -0.804 l -0.346,-2.865 c -0.344,0.311 -0.734,0.529 -1.164,0.667 -0.203,1.217 -0.222,1.303 -0.334,2.198 h -0.775 v 0.85 c 1.337,0.004 2.079,-0.002 3.42,-0.002 z m -3.456,6.188 0.003,0.007 c 0.208,-0.615 0.597,-1.056 1.213,-1.348 -0.071,0.329 -0.358,0.624 -0.451,0.969 -0.267,0.674 -0.241,1.636 0.197,2.223 0.311,0.461 0.759,0.65 1.249,0.807 -0.187,-0.556 -0.244,-1.218 -0.016,-1.781 0.322,0.244 0.339,0.259 0.587,0.501 0.093,0.09 0.136,0.119 0.216,0.18 0.458,-0.973 0.972,-2.313 0.671,-3.447 l -0.185,-0.487 c -0.073,0.8 -0.204,1.184 -0.742,1.473 -0.071,-0.465 0.228,-0.8 0.297,-1.407 0.22,-0.94 0.047,-1.872 -0.534,-2.414 h -1.5 c -1.147,1.225 -1.225,3.064 -1.005,4.724 m 14.645,-1.764 0.474,-0.83 -1.183,-1.294 c -0.32,0.307 -0.346,0.336 -0.663,0.668 0.609,0.639 0.668,0.705 1.372,1.456 m 3.616,5.194 c 0.465,0.135 1.098,0.076 1.491,-0.273 0.529,-0.382 0.683,-1.03 0.554,-1.632 -0.369,-1.3 -1.822,-1.542 -2.999,-1.85 l -0.645,0.877 c 0.239,1.12 0.367,2.414 1.599,2.878 m 2.43,-17.249 c 0.075,-0.002 0.433,0.074 0.441,0.299 v 4.692 c 0.646,0.151 1.298,0.372 1.907,0.497 V 9.112 c 0.37,0.043 0.553,0.09 1.005,0.159 V 5.543 L -1.943,5.369 -2.306,3.865 h -4.135 l -0.617,1.339 c -1.002,0.093 -1.073,0.093 -2.083,0.165 0.948,1.222 1.922,2.439 2.581,3.777 v 1.907 l 1.865,0.239 V 6.771 c 0,-0.157 0.23,-0.318 0.462,-0.318 z m 4.718,15.064 c -1.125,2.56 -3.367,4.443 -6.1,5.224 -2.564,0.692 -5.347,1.082 -8.132,1.082 h -0.088 c -2.787,0 -5.567,-0.39 -8.133,-1.082 -2.733,-0.781 -4.971,-2.664 -6.101,-5.224 -2.455,-5.258 -4.06,-12.818 -4.06,-20.249 0,-7.436 1.605,-14.992 4.06,-20.249 1.13,-2.559 3.368,-4.446 6.101,-5.226 2.566,-0.69 5.346,-1.078 8.133,-1.078 h 0.088 c 2.785,0 5.568,0.388 8.132,1.078 2.733,0.78 4.975,2.667 6.1,5.226 2.448,5.257 4.06,12.813 4.06,20.249 0,7.431 -1.612,14.991 -4.06,20.249"
             style="fill:#64614f;fill-opacity:1;fill-rule:nonzero;stroke:none"
             id="path420"
             inkscape:connector-curvature="0" />
        </g>
        <g
           id="g422"
           transform="translate(267.855,89.781)">
          <path
             d="m 0,0 c 0.578,0 0.929,0.392 0.929,1.033 0,0.611 -0.465,0.882 -0.99,0.882 H -1.986 L -1.984,0 Z m 0.114,-1.281 c -0.785,0.049 -1.512,0.044 -2.098,0.044 v -0.014 l -0.007,-2.222 c 1.635,0.021 1.693,0 2.251,0.065 0.57,0.066 0.837,0.57 0.837,1.065 0,0.495 -0.367,1.024 -0.983,1.062 M 49.063,1.583 49.061,1.592 V 1.578 L 48.075,-1.74 h 1.979 l -0.991,3.318 z m -23.574,0.25 c -0.467,0.036 -1.316,-0.018 -2.095,0 v -2.048 c 1.523,-0.004 1.756,0.001 2.23,0.044 0.471,0.048 0.775,0.474 0.775,1.057 -0.005,0.587 -0.437,0.901 -0.91,0.947 M 64.155,-2.64 C 64.129,-3.231 63.98,-3.732 63.416,-4.192 62.764,-4.754 61.88,-4.98 60.984,-4.975 h -0.021 c -0.891,-0.005 -1.778,0.221 -2.432,0.783 -0.559,0.46 -0.713,0.961 -0.737,1.552 v 5.776 h 1.645 V -2.64 c 0.014,-0.471 0.379,-0.817 0.784,-0.975 0.23,-0.093 0.489,-0.136 0.754,-0.13 0.261,-0.006 0.521,0.037 0.746,0.13 0.411,0.158 0.78,0.547 0.787,0.975 l 0.003,5.776 h 1.642 z m -13.08,-2.152 -0.576,1.733 h -2.87 l -0.576,-1.733 h -1.625 l 2.78,7.942 h 1.711 l 2.778,-7.942 z m -11.494,4.93 0.005,-1.375 h -3.643 l -0.002,-2.22 h 4.176 l 0.002,-1.321 h -5.837 v 7.944 h 5.837 L 40.117,1.852 35.948,1.848 V 0.141 Z m -13.016,-4.93 c -0.377,0.003 0.182,3.151 -1.181,3.232 -0.763,0.051 -1.242,0.019 -2,0.008 l 0.007,-3.24 h -1.654 v 7.939 c 1.519,-0.011 2.391,-0.02 3.754,-0.02 1.228,-0.06 2.45,-0.553 2.533,-1.887 0.093,-1.542 -0.779,-1.896 -1.597,-2.161 1.893,-0.406 1.192,-2.616 1.697,-3.871 z M 14.94,-2.65 c -0.019,-0.594 -0.17,-1.095 -0.73,-1.556 -0.654,-0.558 -1.54,-0.786 -2.431,-0.782 h -0.024 c -0.896,-0.004 -1.778,0.224 -2.429,0.782 -0.564,0.461 -0.714,0.962 -0.74,1.556 v 5.772 h 1.638 l 0.005,-5.772 c 0.014,-0.472 0.374,-0.823 0.789,-0.973 0.225,-0.099 0.488,-0.144 0.749,-0.129 0.26,-0.015 0.521,0.03 0.746,0.129 0.413,0.15 0.78,0.542 0.787,0.973 l 0.003,5.772 H 14.94 Z M 0.114,-4.789 H -3.64 v 7.93 c 1.592,-0.005 2.519,0 3.837,0 1.223,0 2.187,-0.664 2.28,-1.877 0.082,-0.839 -0.18,-1.566 -1.188,-1.819 0.891,-0.246 1.465,-1.06 1.469,-2.114 0.005,-0.9 -0.694,-2.12 -2.644,-2.12 m -11.452,-2.18 H 71.838 V 5.25 h -83.176 z"
             style="fill:#64614f;fill-opacity:1;fill-rule:nonzero;stroke:none"
             id="path424"
             inkscape:connector-curvature="0" />
        </g>
        <g
           id="g426"
           transform="translate(329.211,70.679)">
          <path
             d="m 0,0 c -2.413,0 -3.342,1.507 -3.342,2.663 l 1.519,0.056 c 0,-0.63 0.595,-1.45 1.702,-1.45 0.853,0 1.801,0.18 1.801,1.112 0,1.688 -4.777,0.699 -4.777,3.377 0,1.426 0.971,2.646 3.071,2.646 2.912,0 3.173,-1.977 3.173,-2.484 L 1.619,5.865 c 0,0.647 -0.394,1.244 -1.467,1.244 -1.166,0 -1.619,-0.508 -1.619,-1.062 0,-1.429 4.804,-0.695 4.804,-3.372 C 3.337,0.9 1.955,0 0,0 m -8.75,0.179 -0.576,1.733 h -2.87 l -0.573,-1.733 h -1.628 l 2.787,7.945 h 1.704 l 2.782,-7.945 z m -8.833,6.591 h -2.369 V 0.179 h -1.655 l -0.007,6.591 -2.377,-10e-4 v 1.298 h 6.408 z M -28.608,0.179 h -1.662 v 7.949 h 1.662 z m -9.063,0.023 c -0.372,0 0.182,3.148 -1.178,3.233 -0.765,0.043 -1.242,0.008 -2,10e-4 l 0.007,-3.234 h -1.652 v 7.936 c 1.517,-0.009 2.389,-0.017 3.756,-0.017 1.226,-0.065 2.449,-0.557 2.529,-1.893 0.095,-1.541 -0.78,-1.894 -1.595,-2.159 1.894,-0.411 1.187,-2.615 1.697,-3.867 z M -48.637,5.095 V 3.723 l -3.64,0.003 V 1.501 h 4.171 l 0.005,-1.321 h -5.835 v 7.949 h 5.837 L -48.106,6.814 -52.272,6.811 V 5.099 Z M -61.368,0.179 h -1.522 l -2.692,7.945 1.737,0.003 c 0.55,-1.984 1.138,-4.226 1.714,-5.887 0.58,1.661 1.17,3.903 1.713,5.884 l 1.716,0.003 z m -11.326,-2.194 h 83.176 v 12.222 h -83.176 z m 61.942,8.583 -0.003,-0.01 -0.002,0.01 V 6.554 L -11.75,3.228 h 1.981 l -0.983,3.326 z M -38.74,6.816 c -0.467,0.043 -1.32,-0.011 -2.095,0 V 4.77 c 1.514,-0.005 1.751,0.002 2.223,0.05 0.469,0.048 0.782,0.47 0.777,1.053 -0.004,0.588 -0.436,0.908 -0.905,0.943"
             style="fill:#be1536;fill-opacity:1;fill-rule:nonzero;stroke:none"
             id="path428"
             inkscape:connector-curvature="0" />
        </g>
      </g>
    </g>
  </g>
</svg>
